<svg width="96" height="96" viewBox="0 0 96 96" fill="none" xmlns="http://www.w3.org/2000/svg">
  <defs>
    <linearGradient id="bg" x1="0" y1="0" x2="96" y2="96" gradientUnits="userSpaceOnUse">
      <stop offset="0" stop-color="#0EE3B6"/>
      <stop offset="0.55" stop-color="#10BFE7"/>
      <stop offset="1" stop-color="#0A6BFF"/>
    </linearGradient>
    <linearGradient id="shine" x1="10" y1="6" x2="84" y2="90" gradientUnits="userSpaceOnUse">
      <stop offset="0" stop-color="#FFFFFF" stop-opacity="0.35"/>
      <stop offset="1" stop-color="#FFFFFF" stop-opacity="0"/>
    </linearGradient>
    <linearGradient id="accent" x1="24" y1="60" x2="74" y2="26" gradientUnits="userSpaceOnUse">
      <stop offset="0" stop-color="#FFFFFF"/>
      <stop offset="1" stop-color="#E6F6FF"/>
    </linearGradient>
  </defs>
  <rect x="4" y="4" width="88" height="88" rx="24" fill="url(#bg)"/>
  <rect x="10" y="10" width="76" height="76" rx="20" fill="url(#shine)"/>
  <rect x="26" y="40" width="8" height="22" rx="4" fill="#FFFFFF"/>
  <rect x="27" y="30" width="6" height="10" rx="3" fill="#FFFFFF" opacity="0.7"/>
  <rect x="44" y="28" width="8" height="30" rx="4" fill="#FFFFFF"/>
  <rect x="62" y="36" width="8" height="16" rx="4" fill="#FFFFFF"/>
  <path
    d="M20 64L38 48L50 56L72 34"
    stroke="url(#accent)"
    stroke-width="5.5"
    stroke-linecap="round"
    stroke-linejoin="round"
  />
  <path
    d="M72 34L72 42M72 34L64 34"
    stroke="url(#accent)"
    stroke-width="5.5"
    stroke-linecap="round"
    stroke-linejoin="round"
  />
</svg>
